<svg xmlns="http://www.w3.org/2000/svg" width="30" height="30" viewBox="0 0 30 30" fill="none">
  <g clip-path="url(#clip0_103_11014)">
    <path fill-rule="evenodd" clip-rule="evenodd" d="M5 16.5818V17.3234C5.0451 17.433 5.10099 17.9406 5.16036 18.1417C5.42374 19.0341 5.98829 19.8692 6.74954 20.4018C7.3433 20.8172 8.08024 21.1218 8.85002 21.1698C9.27651 21.1964 12.3293 21.2147 12.7013 21.1863C13.3353 21.1379 13.3323 20.2604 12.6758 20.2274C12.0729 20.1972 11.3871 20.2264 10.775 20.2264C9.48952 20.2264 8.40298 20.3602 7.44205 19.7098C7.01786 19.4227 6.74954 19.1759 6.47723 18.7485C5.90296 17.8474 5.7843 16.7208 6.22063 15.7226C6.50684 15.0679 6.97093 14.5539 7.59006 14.1918C8.69906 13.5431 9.69347 13.8687 9.95893 13.8103C10.0297 12.896 10.0689 12.4913 10.3979 11.7237C10.8637 10.637 11.9024 9.67961 13.001 9.27719C15.0833 8.51437 17.2204 9.23107 18.4004 10.8015C18.7539 11.2719 19.0567 11.8015 19.2311 12.4945C19.4526 13.375 19.3617 13.9172 19.3077 14.8079C19.9012 14.688 20.5575 14.077 21.9186 14.4574C24.4874 15.1753 24.8472 18.8922 22.2298 20.0067C21.4253 20.3493 20.2358 20.2325 19.3 20.2325C18.2498 20.2325 17.2 20.2248 16.15 20.2265C15.3967 20.2276 15.4799 20.0229 15.4798 19.3264C15.4798 18.8014 15.4799 18.2764 15.4799 17.7514C15.4799 17.1526 15.4495 15.0579 15.4848 14.6362C15.5138 14.6736 15.5307 14.6818 15.5717 14.7282C15.6105 14.7722 15.6262 14.7985 15.6624 14.8392C15.8708 15.0732 16.0455 15.3745 16.3015 15.4038C16.6871 15.4479 17.0935 15.0176 16.6644 14.5371C16.5434 14.4016 16.4214 14.2401 16.3 14.1009C16.1661 13.9474 16.0506 13.8191 15.9332 13.6678C15.6829 13.3452 15.4119 12.9885 15.0252 12.9789C14.5516 12.9671 14.373 13.3383 14.0999 13.6519C13.8378 13.9529 13.6192 14.2198 13.3657 14.5168C12.9024 15.0596 13.3523 15.4357 13.6996 15.4053C13.9365 15.3845 14.0485 15.1926 14.1635 15.0652C14.2711 14.946 14.3944 14.7623 14.5182 14.6557C14.5712 16.3643 14.4658 18.1198 14.5212 19.8269C14.5455 20.576 15.0554 21.1199 15.7741 21.182C16.1648 21.2157 16.672 21.1889 17.075 21.1889L20.925 21.1952C21.7949 21.1953 22.3411 21.0589 22.9952 20.6972C23.5457 20.3927 24.0071 19.9546 24.3373 19.4642C24.9893 18.4957 24.9148 17.7832 25 17.5568V17.0122C24.951 16.9002 24.9499 16.694 24.9229 16.5523C24.8043 15.9299 24.4889 15.2354 24.0742 14.7772C23.8885 14.5719 23.782 14.4366 23.5475 14.2544C21.9578 13.0193 20.58 13.4803 20.3389 13.4396C20.2071 11.8339 19.7337 10.9227 18.9734 9.97746L18.1953 9.23141C17.7622 8.90619 17.3952 8.67465 16.8764 8.45048C16.7573 8.39903 16.0147 8.16529 15.987 8.14085C15.845 8.15053 15.5058 8.06661 15.3289 8.04322C13.2089 7.76293 10.9974 8.87007 9.88564 10.6623C9.69772 10.9652 9.53254 11.2783 9.3923 11.6435C9.24967 12.015 9.17735 12.2799 9.10962 12.6618C9.10409 12.693 9.10097 12.714 9.0898 12.7435C9.06033 12.8213 9.10744 12.746 9.06059 12.7925C9.03503 12.8096 8.3195 12.8935 8.19705 12.9225C7.42113 13.1064 6.88001 13.4534 6.30777 13.959C5.12848 15.001 5.10696 16.3495 5 16.5818Z" fill="#134764"/>
    <circle cx="15" cy="15" r="14.5" stroke="#134764"/>
  </g>
  <defs>
    <clipPath id="clip0_103_11014">
      <rect width="30" height="30" fill="white"/>
    </clipPath>
  </defs>
</svg>