<svg xmlns="http://www.w3.org/2000/svg" width="30" height="30" viewBox="0 0 30 30" fill="none">
  <g clip-path="url(#clip0_103_11008)">
    <circle cx="15" cy="15" r="14.5" stroke="#134764"/>
    <path fill-rule="evenodd" clip-rule="evenodd" d="M8.04527 19.7551C8.15421 19.8066 9.78792 21.5081 9.85471 21.6433L7.1973 22.2955L8.04527 19.7551ZM9.70754 17.6696C10.094 17.3009 10.4733 16.9249 10.8595 16.5566C12.9968 14.5183 15.0979 12.4273 17.2164 10.4074C17.3624 10.2682 17.6127 9.98547 17.7799 9.86804C17.8718 9.91068 19.9469 12.0411 20.0806 12.2215C20.0414 12.3131 18.0436 14.2347 17.7784 14.4842C15.8538 16.2946 13.9074 18.2571 11.9827 20.0798C11.7413 20.3084 11.0324 21.0765 10.8169 21.1901C10.6714 21.099 10.3571 20.7366 10.224 20.5882C9.92223 20.2517 8.60106 18.9951 8.54147 18.8126L9.70754 17.6696ZM18.5062 9.1794C18.603 9.02187 19.42 8.24534 19.5375 8.19638C19.792 8.43417 21.7498 10.4539 21.8129 10.5716L20.7881 11.5432C20.6582 11.4508 20.3328 11.0983 20.1987 10.9522C19.9346 10.6648 18.6036 9.33151 18.5062 9.1794ZM22.9349 10.8018C23.1261 10.4515 22.8498 10.2326 22.6985 10.0746L20.1279 7.40589C19.5135 6.75185 19.3939 6.97522 18.8699 7.4637C18.1274 8.15584 17.457 8.85655 16.7414 9.52677C16.0101 10.2116 15.3458 10.8878 14.6283 11.5707C12.3373 13.7513 10.0092 16.0807 7.70431 18.2691C7.4394 18.5207 7.43421 18.4763 7.29534 18.9062L6.26563 22.0405C6.11742 22.478 5.70268 23.365 6.36067 23.4727C6.55945 23.5053 9.85535 22.6368 10.5695 22.4514C11.0088 22.3374 10.9919 22.3874 11.2765 22.1111L19.7801 13.8837C20.2465 13.4393 22.8574 10.9438 22.9349 10.8018Z" fill="#134764"/>
  </g>
  <defs>
    <clipPath id="clip0_103_11008">
      <rect width="30" height="30" fill="white"/>
    </clipPath>
  </defs>
</svg>