<svg width="25" height="27" viewBox="0 0 25 27" fill="none" xmlns="http://www.w3.org/2000/svg">
<path d="M11.578 2.56738H9.5902C4.62064 2.56738 2.63281 4.72955 2.63281 10.135V16.6214C2.63281 22.0268 4.62064 24.189 9.5902 24.189H15.5537C20.5232 24.189 22.5111 22.0268 22.5111 16.6214V14.4593" stroke="#09234F" stroke-width="1.5" stroke-linecap="round" stroke-linejoin="round"/>
<path d="M16.5867 3.6702L8.75468 12.1891C8.4565 12.5134 8.15833 13.1513 8.0987 13.6161L7.67131 16.8702C7.51229 18.0486 8.2776 18.8702 9.36097 18.708L12.3526 18.2432C12.7701 18.1783 13.3565 17.854 13.6646 17.5297L21.4966 9.01074C22.8484 7.54047 23.4845 5.83236 21.4966 3.6702C19.5088 1.50804 17.9384 2.19993 16.5867 3.6702Z" stroke="#09234F" stroke-width="1.5" stroke-miterlimit="10" stroke-linecap="round" stroke-linejoin="round"/>
<path d="M15.4639 4.8916C16.1298 7.47539 17.9884 9.49701 20.3738 10.2321" stroke="#09234F" stroke-width="1.5" stroke-miterlimit="10" stroke-linecap="round" stroke-linejoin="round"/>
</svg>
