<svg width="29" height="18" viewBox="0 0 29 18" fill="none" xmlns="http://www.w3.org/2000/svg">
<path fill-rule="evenodd" clip-rule="evenodd" d="M7.71557 15.3138C7.26115 11.9744 9.53564 9.46933 11.7397 8.60611C16.4521 6.76043 21.0711 10.9051 20.4787 15.2222C20.3721 15.9988 19.9042 16.5038 19.3828 16.7817C18.7012 17.1448 17.6855 17.0273 16.8578 17.0273C15.0629 17.0273 13.268 17.0273 11.473 17.0273C10.4084 17.0273 7.99276 17.3509 7.71557 15.3138ZM19.4958 9.56221C20.2701 9.14319 20.602 8.73134 21.8147 8.53055C25.0614 7.99297 27.4304 10.9452 27.2634 12.7251H21.1897C20.9265 12.1749 20.7957 11.5997 20.4642 11.001C20.0675 10.2847 19.6525 9.90762 19.4958 9.56221ZM0.958804 12.7251C0.712555 10.0534 5.26434 6.5661 8.69664 9.6125C7.71077 10.661 7.46999 11.5222 7.00234 12.7228L0.958804 12.7251ZM21.9268 3.02871C24.9285 2.17737 26.0942 6.55439 23.2977 7.45214C21.9192 7.89468 20.7039 6.99751 20.3684 5.97594C19.8936 4.53022 20.8457 3.3353 21.9268 3.02871ZM5.07356 2.98797C8.11941 2.29313 9.12355 6.73341 6.21714 7.49129C4.82022 7.85556 3.67938 6.89801 3.39018 5.83103C3.0182 4.4585 3.9904 3.23505 5.07356 2.98797ZM13.3847 0.961387C17.5146 0.0357753 18.8357 6.2103 14.8123 7.17878C10.7145 8.1652 9.25107 1.88779 13.3847 0.961387ZM16.2742 7.56069C16.6154 7.21928 16.8702 7.13225 17.1906 6.72995C18.0694 5.62661 18.4341 4.29761 17.9981 2.87575C17.529 1.34626 16.1133 0.0146752 14.1216 0.000121298C10.952 -0.0230232 9.20687 3.27074 10.369 5.73565C10.8344 6.72298 11.187 6.95138 11.9112 7.52349C11.6597 7.75748 10.0016 8.2554 9.48222 8.97062C8.78755 8.66057 8.52629 8.21787 7.55894 7.93521C7.7466 7.62195 8.31837 7.33921 8.6883 6.34933C9.43802 4.34331 7.9702 2.01865 5.64654 2.02858C3.3471 2.03842 1.84447 4.30633 2.67212 6.46027C2.97467 7.2476 3.34811 7.38479 3.75707 7.87115C3.23622 8.18963 2.75823 8.34801 2.24026 8.72879C0.852465 9.74894 -0.135118 11.6595 0.0150921 13.621L6.84838 13.6212C6.79037 14.5969 6.70147 15.4272 7.09676 16.2458C8.20502 18.541 11.0742 17.9248 14.1213 17.9248C17.1655 17.9248 19.983 18.5426 21.1168 16.2169C21.5058 15.419 21.4165 14.5449 21.3571 13.6212L28.2275 13.6185C28.3368 12.1927 27.8208 10.7975 27.1798 9.93473C26.2608 8.69773 25.7332 8.53534 24.479 7.87483C25.5545 6.86648 26.1556 5.70075 25.5921 4.10733C24.6239 1.36919 20.5135 1.26293 19.5261 4.21458C19.29 4.92051 19.3135 5.71301 19.5809 6.40947C19.7174 6.76502 19.8728 6.99855 20.063 7.25214C20.3647 7.65456 20.5135 7.64909 20.6808 7.92499C19.5374 8.26761 19.2392 8.77033 18.7999 8.96545C18.4079 8.73155 18.0572 8.40352 17.581 8.14722C17.2785 7.98446 16.4985 7.72441 16.2742 7.56069Z" fill="#134764"/>
</svg>
