<svg width="44" height="33" viewBox="0 0 44 33" fill="none" xmlns="http://www.w3.org/2000/svg">
<path d="M40.5 27C40.5 28.4912 39.2912 29.7 37.8 29.7H5.4C3.90883 29.7 2.7 28.4912 2.7 27V10.8C2.7 9.30883 3.90883 8.1 5.4 8.1H8.56325C10.7115 8.1 12.7718 7.24661 14.2908 5.72756L16.5276 3.49081C17.0339 2.98446 17.7207 2.7 18.4368 2.7H24.7632C25.4793 2.7 26.1661 2.98446 26.6724 3.49081L28.9092 5.72757C30.4282 7.24661 32.4885 8.1 34.6368 8.1H37.8C39.2912 8.1 40.5 9.30883 40.5 10.8V27ZM5.4 5.4C2.41766 5.4 0 7.81766 0 10.8V27C0 29.9823 2.41766 32.4 5.4 32.4H37.8C40.7823 32.4 43.2 29.9823 43.2 27V10.8C43.2 7.81766 40.7823 5.4 37.8 5.4H34.6368C33.2046 5.4 31.8311 4.83107 30.8184 3.81838L28.5816 1.58162C27.5689 0.568927 26.1954 0 24.7632 0H18.4368C17.0046 0 15.6311 0.568925 14.6184 1.58162L12.3816 3.81838C11.3689 4.83107 9.99542 5.4 8.56325 5.4H5.4Z" fill="#09234F"/>
<path d="M21.6 24.3C17.8721 24.3 14.85 21.2779 14.85 17.55C14.85 13.8221 17.8721 10.8 21.6 10.8C25.3279 10.8 28.35 13.8221 28.35 17.55C28.35 21.2779 25.3279 24.3 21.6 24.3ZM21.6 27C26.8191 27 31.05 22.7691 31.05 17.55C31.05 12.3309 26.8191 8.1 21.6 8.1C16.3809 8.1 12.15 12.3309 12.15 17.55C12.15 22.7691 16.3809 27 21.6 27Z" fill="#09234F"/>
<path d="M8.1 12.15C8.1 12.8956 7.49558 13.5 6.75 13.5C6.00442 13.5 5.4 12.8956 5.4 12.15C5.4 11.4044 6.00442 10.8 6.75 10.8C7.49558 10.8 8.1 11.4044 8.1 12.15Z" fill="#09234F"/>
</svg>
