<svg width="40" height="25" viewBox="0 0 40 25" fill="none" xmlns="http://www.w3.org/2000/svg">
<path fill-rule="evenodd" clip-rule="evenodd" d="M1.02824 20.3635H38.9718C38.9414 21.7248 37.5136 23.147 36.115 23.147H3.88499C2.48012 23.147 1.06593 21.7285 1.02824 20.3635ZM5.20349 3.14976C5.20349 2.15549 6.32135 1.02551 7.32775 1.02551H32.6723C33.6804 1.02551 34.7965 2.08158 34.7965 3.29625V19.338H5.20349V3.14976ZM4.17801 3.29625V19.338H0.515499C-0.0686591 19.338 0.00275667 19.7959 0.00275667 20.217C0.00275667 22.2737 1.90157 24.1725 3.95826 24.1725H36.0417C38.0984 24.1725 39.9972 22.2737 39.9972 20.217C39.9972 19.7959 40.0687 19.338 39.4845 19.338H35.822V3.29625C35.822 1.54132 34.1673 0 32.6723 0H7.32775C5.83271 0 4.17801 1.54132 4.17801 3.29625Z" fill="#134764"/>
<path fill-rule="evenodd" clip-rule="evenodd" d="M24.6878 15.2361H15.3118C14.1597 15.2361 13.3341 14.4105 13.3341 13.2583V7.17855C13.3341 6.56243 13.5118 6.09722 13.8013 5.74129C14.109 5.36315 14.629 5.12756 15.1653 5.12756H24.8343C25.9471 5.12756 26.6656 6.00805 26.6656 7.17855V13.1118C26.6656 14.3615 25.922 15.2361 24.6878 15.2361ZM12.3086 7.3983V12.9653C12.3086 14.9259 13.4738 16.2616 15.3118 16.2616H24.6878C26.5769 16.2616 27.6911 14.898 27.6911 12.8188V7.3983C27.6911 5.4923 26.5285 4.10205 24.9076 4.10205H15.0921C14.2292 4.10205 13.4889 4.60805 13.058 5.0712C12.5613 5.60496 12.3086 6.38789 12.3086 7.3983Z" fill="#134764"/>
<path fill-rule="evenodd" clip-rule="evenodd" d="M18.0216 12.8186V7.5446C18.2939 7.60804 18.8747 7.99529 19.1684 8.15573L21.9996 9.79279C22.2366 9.9259 22.3554 10.0429 22.6363 10.1084C22.4749 10.3287 18.3164 12.6626 18.0216 12.8186ZM16.9961 6.51909V13.6976C16.9961 14.884 18.5994 13.6571 19.2417 13.3062L23.4653 10.864C24.8633 10.0301 24.0353 9.82911 22.6955 9.02366L17.5089 6.07959C17.3016 6.07959 16.9961 6.31213 16.9961 6.51909Z" fill="#134764"/>
<path fill-rule="evenodd" clip-rule="evenodd" d="M17.2168 21.4624V22.2682H22.7838C22.7838 21.5531 22.8831 21.2427 22.5641 21.2427H17.4365C17.2678 21.2427 17.2168 21.2937 17.2168 21.4624Z" fill="#134764"/>
</svg>
