<svg width="30" height="25" viewBox="0 0 30 25" fill="none" xmlns="http://www.w3.org/2000/svg">
<path fill-rule="evenodd" clip-rule="evenodd" d="M27.1109 11.6076C27.6852 12.0765 27.4261 15.756 27.4135 16.7093C27.4016 17.6011 27.4483 18.4159 27.1507 19.2192C25.8919 22.6176 19.2544 22.238 16.7098 21.0238C14.4667 19.9535 12.9134 17.8344 12.7386 15.3809C12.6989 14.8234 12.7858 14.6532 13.1839 14.4495C14.2676 13.8952 17.3428 13.8908 17.2976 15.2258C17.2504 16.6196 16.6306 17.8482 15.8429 18.929C15.7484 19.0587 15.7772 18.9861 15.7274 19.1228C16.0596 19.5132 17.2268 20.1804 17.9221 20.3639C18.0206 20.2783 17.976 20.3188 18.0585 20.2189C19.1481 18.899 20.1292 16.0482 19.769 14.4417C19.271 12.2212 16.6407 11.5756 14.5726 11.6354C13.4806 11.7336 12.5563 11.916 11.7668 12.4132C11.1103 12.8267 10.4359 13.4714 10.24 14.4897C9.87685 16.3769 10.9341 18.798 11.7483 20.0176C13.5785 22.7592 17.0118 24.5562 21.9876 24.2749C26.5248 24.0184 29.8722 22.2606 29.9408 17.7321C29.9588 16.5494 29.9721 15.3664 29.9877 14.1836C30.0054 12.8509 30.0607 12.1894 29.6315 10.9979C29.2072 9.81984 28.3551 8.58431 27.5727 7.67608L26.7828 6.75236C26.582 6.64854 25.5772 5.56875 25.3198 5.36168C25.1997 5.26507 25.1331 5.22587 25.0267 5.1201C24.3228 4.42054 22.6575 3.26469 21.8419 2.70249C20.6393 1.87354 18.8354 0.926353 17.3502 0.428994C16.7267 0.220179 15.6436 0.057911 15.5554 0C15.0646 0.0828603 14.5219 0.0419593 13.9619 0.146983C9.35155 1.01156 1.17262 7.08878 0.191819 11.6425C-0.0011339 12.5383 0.0669521 13.9486 0.0541891 14.9109C0.0248778 17.123 -0.254961 18.8344 0.819583 20.7524C2.06158 22.9695 5.05478 23.8728 7.69329 24.0912C8.76845 24.1802 9.86803 24.1881 10.9356 24.0637C12.4994 23.8817 12.5154 23.7177 13.6798 23.4508L13.0634 22.9575C12.3996 22.4391 12.0865 22.104 11.5047 21.4921C8.82242 22.0084 3.78854 21.9232 2.77393 18.9171C2.43682 17.9183 2.5756 16.4155 2.59031 15.3075C2.60404 14.2714 2.50647 12.5354 2.82175 11.6568C3.1418 10.7649 3.81711 9.85828 4.31364 9.27231C4.46531 9.09335 4.63103 8.89598 4.78439 8.73216C4.9646 8.53959 5.0822 8.40281 5.24569 8.23748L6.23225 7.31116C6.40538 7.14115 6.58677 7.04162 6.75924 6.87861C8.31773 5.40574 11.3394 3.63365 13.3836 2.85672C14.5716 2.40524 15.3618 2.36528 16.6108 2.7726C18.2975 3.32269 20.2452 4.56774 21.6049 5.55356C22.2268 6.00445 22.9429 6.54695 23.4831 7.08499C23.5692 7.17071 23.645 7.2263 23.7426 7.30647C23.9403 7.46906 24.076 7.61723 24.2589 7.80033C24.4394 7.98111 24.545 8.07346 24.7517 8.26421C25.2941 8.76492 27.0861 10.9807 27.1109 11.6076Z" fill="white"/>
<path fill-rule="evenodd" clip-rule="evenodd" d="M14.6786 4.90121C11.2651 5.5259 12.2546 10.3486 15.581 9.78545C16.8152 9.57651 17.9337 8.37912 17.6545 6.89789C17.4299 5.70629 16.2236 4.61846 14.6786 4.90121Z" fill="white"/>
</svg>