<svg width="30" height="31" viewBox="0 0 30 31" fill="none" xmlns="http://www.w3.org/2000/svg">
<g id="_2412063098704">
<path id="Vector" fill-rule="evenodd" clip-rule="evenodd" d="M6.39317 24.2159L23.5359 24.192C23.6609 25.0129 23.6632 25.7037 22.6919 25.7501C20.9519 25.8331 16.9031 25.7497 15.0002 25.7497L7.39783 25.752C6.35187 25.7257 6.33322 25.1032 6.39317 24.2159ZM24.6639 25.7163C24.8244 24.5175 24.7404 23.4469 24.8413 22.2259C24.9349 21.0922 24.9951 19.9455 25.1011 18.8153C25.3198 18.9082 26.0198 20.0257 26.1984 20.3167C26.5856 20.9476 26.8036 21.6679 26.8323 22.4126C26.8907 23.9269 26.7074 25.9234 24.6639 25.7163ZM4.903 18.8116C5.01896 19.9382 5.07173 21.0941 5.1674 22.2273C5.27082 23.4525 5.17081 24.506 5.33623 25.7161C2.61939 25.9937 2.81839 21.9356 3.80289 20.3175C3.97278 20.0383 4.70608 18.9063 4.903 18.8116ZM23.5398 22.9858C22.7132 23.2114 6.63227 23.0369 6.50532 22.9529C6.1585 22.6019 6.26197 21.1689 6.20848 20.5955C6.097 19.4005 5.61884 13.4827 5.74902 13.077L24.2553 13.0643C24.3832 13.4756 23.7215 22.6068 23.5398 22.9858ZM10.6261 6.99779C11.754 6.99779 13.1182 7.06647 14.218 6.98157C15.4749 6.88453 15.7581 6.37983 16.5861 5.88776C17.4435 7.52314 18.1145 7.0238 19.5598 7.25607C19.5944 8.99085 19.5744 10.7001 18.2882 11.9115L11.818 11.8894C10.4955 10.6043 10.6239 8.76712 10.6261 6.99779ZM14.0101 1.29693C16.528 0.814116 18.5484 1.79773 19.8687 3.94574C21.3179 6.30335 20.4068 6.02419 19.1267 6.03172C16.6972 6.04608 18.0335 4.13433 16.6904 4.14346C15.9179 4.14868 15.8354 5.72261 13.9724 5.83232C13.398 5.86618 10.0277 5.98378 9.80245 5.65162C9.40738 5.06893 10.7082 3.24355 11.1296 2.78856C11.9775 1.87315 12.8092 1.52721 14.0101 1.29693ZM19.8314 11.8701C20.7564 10.1075 20.7149 9.66601 20.7116 7.68071C20.7094 6.32692 22.6723 6.89051 21.3076 4.10291C20.1245 1.68646 17.9477 0.00854561 15.1874 3.79229e-05C10.188 -0.015338 8.10353 4.64931 8.64501 5.97624C9.08395 7.05185 9.47557 6.14742 9.45492 7.68806C9.44371 8.52532 9.41761 9.26921 9.59366 10.0937C9.7565 10.8564 10.1582 11.3591 10.3029 11.8859C9.16367 12.0171 5.45028 11.5518 4.81455 12.3244C4.28318 12.9701 4.56681 14.1154 4.61241 14.9076C4.66474 15.8174 4.96034 16.5771 4.45196 17.3083C2.72773 19.7885 1.85272 20.5361 1.96886 23.6397C2.01122 24.7711 2.3171 24.8735 2.66738 25.7378C1.73051 25.801 1.02358 25.8011 0.421704 26.596C-0.0732482 27.2496 -0.137411 28.1909 0.255184 28.907C1.12341 30.4908 3.64625 30.0137 5.24499 30.0137C5.99216 30.0137 12.3881 30.1456 12.7354 29.9052C13.0737 29.671 13.041 29.0757 12.648 28.9011C12.3566 28.7716 4.34282 28.8419 3.65042 28.842C2.81467 28.842 1.40634 29.1016 1.201 28.1212C0.938015 26.8655 2.16973 26.9317 2.99373 26.9337L27.2893 26.9325C28.1826 26.9279 29.3551 27.2535 28.6881 28.4118C28.3235 29.0451 26.8433 28.8421 26.1623 28.8421C25.3712 28.8421 17.5166 28.6918 17.1565 28.9824C16.8384 29.239 16.9174 29.7914 17.31 29.9516C17.6664 30.0971 24.126 30.0137 24.8491 30.0137C26.4667 30.0137 28.9443 30.4842 29.7769 28.845C30.1439 28.1223 30.0541 27.1765 29.537 26.5435C28.9217 25.7904 28.2513 25.7997 27.3329 25.7378C27.6999 24.8142 28.0047 24.76 28.0335 23.546C28.0552 22.6285 28.0392 21.8002 27.7509 20.9216C27.3662 19.7489 26.2835 18.3071 25.5526 17.3043C24.6264 16.0337 26.2307 13.5398 25.1798 12.3302C24.4416 11.4805 21.0424 12.1012 19.8314 11.8701Z" fill="#134764"/>
<path id="Vector_2" fill-rule="evenodd" clip-rule="evenodd" d="M14.9052 17.592C16.4901 17.2908 16.9359 19.2485 15.4364 19.4767C13.9091 19.7091 13.3555 17.8866 14.9052 17.592ZM17.4598 19.0584C18.3014 16.3637 13.6438 15.2895 12.8987 17.9653C12.1253 20.7426 16.6013 21.8073 17.4598 19.0584Z" fill="#134764"/>
<path id="Vector_3" fill-rule="evenodd" clip-rule="evenodd" d="M15.463 9.47048C16.3175 7.52581 14.988 7.78042 14.7272 8.1638C14.4456 8.5778 13.9056 10.0907 14.1499 10.4996C14.4607 10.815 15.571 10.8844 15.9432 10.6006C16.688 10.0327 15.6365 9.59823 15.463 9.47048Z" fill="#134764"/>
<path id="Vector_4" fill-rule="evenodd" clip-rule="evenodd" d="M14.4598 29.6395C14.6235 30.2138 15.7113 30.1173 15.5517 29.285C15.4135 28.5643 14.2111 28.767 14.4598 29.6395Z" fill="#134764"/>
</g>
</svg>
