<svg width="24" height="27" viewBox="0 0 24 27" fill="none" xmlns="http://www.w3.org/2000/svg">
<path fill-rule="evenodd" clip-rule="evenodd" d="M2.41161 17.248L21.8935 17.256C21.895 18.0327 20.6239 24.1126 20.332 24.7512H4.0924L2.41161 17.248ZM11.8999 12.8838H12.5245L13.0467 15.9974L11.4314 16.0068C11.4294 14.8703 11.8768 13.9738 11.8999 12.8838ZM13.7834 12.411C14.3977 11.5263 14.5781 11.8439 14.7507 10.555C15.895 11.0963 17.8876 11.2855 19.0843 13.9754C19.3933 14.67 19.4608 15.4719 19.7074 16.0068H14.3983L13.7834 12.411ZM9.96893 15.9962L4.87313 16.0068C4.8749 14.014 6.17591 12.3172 7.80486 11.2872C8.59457 10.7878 9.01406 10.867 9.67366 10.555C9.83861 11.7862 10.0158 11.5477 10.6641 12.402L9.96893 15.9962ZM11.1459 10.4122L13.4224 10.3871C13.1441 12.1432 11.0594 11.8915 11.1459 10.4122ZM3.40841 15.9474L1.06668 16.0344C0.761849 17.1219 1.58653 19.9062 1.84156 21.0684C2.04931 22.0149 2.63034 25.3705 3.03708 25.9627L21.4251 26.0001C21.7073 25.5039 23.6609 17.1163 23.3564 16.1055L21.0073 15.9913C20.6866 13.991 19.9559 12.1129 18.3301 10.8258C16.2283 9.16195 14.7828 9.13632 12.2122 9.13623C9.62178 9.13614 8.22466 9.13929 6.09427 10.8258C4.40454 12.1635 3.84273 13.9452 3.40841 15.9474Z" fill="#134764" stroke="#134764" stroke-width="0.1" stroke-miterlimit="22.9256"/>
<path fill-rule="evenodd" clip-rule="evenodd" d="M9.69069 4.92005C9.63469 4.53261 10.0448 3.40603 10.3573 3.08827C11.8457 1.57472 14.4799 2.36265 14.6541 4.63828C14.8808 7.5999 10.1886 8.36584 9.69069 4.92005ZM11.2522 1.1724C9.00731 1.85755 7.96523 3.70435 8.5301 5.76829C9.85515 10.6097 17.203 8.58679 15.8755 3.73198C15.5329 2.47873 14.063 1.17506 12.9606 1.02521C12.7904 1.0021 12.2061 0.995863 12.0232 1.0025C11.2356 1.03101 11.3148 1.15332 11.2522 1.1724Z" fill="#134764" stroke="#134764" stroke-width="0.1" stroke-miterlimit="22.9256"/>
</svg>
