<svg width="27" height="27" viewBox="0 0 27 27" fill="none" xmlns="http://www.w3.org/2000/svg">
<path fill-rule="evenodd" clip-rule="evenodd" d="M5.22617 9.65295C5.40524 9.91383 5.98112 10.4299 6.24365 10.6921C6.44805 10.8962 6.77708 11.4147 7.17719 11.03C8.97505 9.30176 7.99078 9.60707 10.3559 9.60707C11.7131 9.60707 13.0703 9.60879 14.4272 9.60714C15.0873 9.60631 15.8396 9.5738 16.4886 9.60785C17.0465 9.63714 17.5179 10.1128 17.3579 10.7283C17.1962 11.3502 16.7008 11.37 16.0688 11.4995C15.499 11.6162 14.9297 11.7307 14.3551 11.8423C13.2186 12.0631 12.0883 12.2896 10.9642 12.5182C10.3096 12.6514 9.87194 12.76 9.63383 13.2522C9.45436 13.6232 8.97422 18.002 8.89905 18.6067L8.21275 24.0967C8.10287 24.9924 8.2647 25.2089 7.31431 25.2051C6.67488 25.2025 5.87085 25.2501 5.25347 25.2035C4.86729 25.1744 4.84407 24.9838 4.80671 24.6191L4.30363 20.0743C4.15656 18.6881 4.28407 18.4579 3.40525 17.8815C3.18339 17.736 3.0073 17.6077 2.79395 17.4646C2.10588 17.003 1.7926 16.9631 1.79056 16.4092L1.79205 12.3356C1.80841 10.5132 1.70345 10.332 3.50441 9.97264C3.96648 9.88045 4.78427 9.6681 5.22617 9.65295ZM4.78742 8.90895C3.84228 9.22234 2.50986 9.15225 1.79023 9.71203C0.890078 10.4122 1.01134 11.3062 1.01085 12.7101C1.01035 13.9831 0.987024 15.2781 1.01035 16.5489C1.0156 16.8358 1.079 17.1 1.23469 17.2914C1.46799 17.5783 2.23405 18.0437 2.5921 18.277C2.69446 18.3437 2.78787 18.3844 2.82197 18.4641C3.35827 18.6711 3.37386 18.8225 3.44859 19.4731C3.50491 19.9634 3.56432 20.4558 3.60484 20.946C3.83681 22.0533 3.90231 24.8995 4.22686 25.4361C4.42904 25.7704 4.76338 25.9849 5.34682 25.987C6.18192 25.9901 7.94164 26.1574 8.48623 25.7212C9.0893 25.2381 8.96737 23.8947 9.1402 23.0518C9.39583 20.4071 9.80191 17.6822 10.1364 15.024C10.2812 13.873 10.1675 13.4735 10.728 13.3645C11.3484 13.2438 11.9708 13.1213 12.5986 12.9944C13.8432 12.743 15.0911 12.4978 16.3423 12.2457C17.1095 12.0911 17.4989 11.9625 17.8481 11.4973C18.201 11.0274 18.2885 10.3601 17.994 9.7531C17.4058 8.541 15.9008 8.82604 14.4272 8.82604L8.81156 8.82581C7.81446 8.82206 8.25166 8.99622 6.89878 10.22C6.69533 10.098 6.20297 9.55562 5.99532 9.34919C5.54221 8.89867 5.65441 8.77757 4.78742 8.90895Z" fill="#134764" stroke="#134764" stroke-width="0.25" stroke-miterlimit="22.9256"/>
<path fill-rule="evenodd" clip-rule="evenodd" d="M25.9326 1.19833L25.9135 1.15163C25.5702 1.00643 25.511 1.02483 25.0499 1.02533H12.2745C11.8672 1.02533 10.7135 0.91866 10.4879 1.14312C10.2945 1.33546 10.3588 1.67488 10.5801 1.769C10.8031 1.86374 16.9774 1.8062 17.3753 1.8062C19.9562 1.8062 22.6169 1.74253 25.1901 1.80952L25.1878 18.1827C23.1675 18.2316 21.0868 18.1853 19.0599 18.1852H11.3854C10.9599 18.1852 10.2339 18.085 10.3858 18.6706C10.4954 19.0935 11.1544 18.965 11.6193 18.9652C12.1183 18.9655 12.6176 18.9662 13.1168 18.9663L25.3799 18.968C26.0604 18.9716 25.9719 18.6482 25.9714 18.0448L25.9724 4.23986C25.9711 3.47711 26.0565 1.8439 25.9326 1.19833Z" fill="#134764" stroke="#134764" stroke-width="0.25" stroke-miterlimit="22.9256"/>
<path fill-rule="evenodd" clip-rule="evenodd" d="M6.48269 1.83861C8.08528 1.60608 9.36591 2.78955 9.56058 4.1432C9.78995 5.73816 8.63943 7.01526 7.31115 7.22833C5.67075 7.49153 4.3548 6.30077 4.16135 4.91584C3.93341 3.2839 5.10698 2.03825 6.48269 1.83861ZM3.37124 4.79938C3.31431 5.51791 3.81015 6.30569 4.11868 6.73277C4.2468 6.91008 4.61938 7.26028 4.81454 7.39514C5.08913 7.58495 5.40528 7.69156 5.67689 7.86063C6.63286 8.0532 7.21166 8.18242 8.16194 7.80215C11.3026 6.54523 10.973 2.08418 7.85828 1.16994C7.06773 0.937906 6.22075 0.987816 5.49946 1.30098C4.1813 1.87337 3.16127 3.29434 3.37124 4.79938Z" fill="#134764" stroke="#134764" stroke-width="0.25" stroke-miterlimit="22.9256"/>
<path fill-rule="evenodd" clip-rule="evenodd" d="M13.4989 6.95413C13.5611 7.40448 14.4339 7.26723 15.1291 7.26723H19.06C19.5425 7.26723 20.5926 7.46306 20.5028 6.82307C20.4358 6.34481 19.6055 6.48641 18.8728 6.48641C17.5055 6.48641 15.2183 6.43999 13.9565 6.48492C13.6531 6.4957 13.4522 6.61603 13.4989 6.95413Z" fill="#134764" stroke="#134764" stroke-width="0.25" stroke-miterlimit="22.9256"/>
<path fill-rule="evenodd" clip-rule="evenodd" d="M13.7119 4.96454C13.4986 5.06939 13.4003 5.37233 13.5952 5.58507C13.7637 5.76918 14.1981 5.7075 14.474 5.70744C15.3516 5.70717 20.1046 5.75475 20.2978 5.66693C20.508 5.57136 20.5815 5.24056 20.406 5.04794C20.2299 4.85466 19.8082 4.92524 19.528 4.9253C18.8732 4.92535 18.2166 4.93121 17.5625 4.9253C17.0892 4.92099 13.8813 4.88136 13.7119 4.96454Z" fill="#134764" stroke="#134764" stroke-width="0.25" stroke-miterlimit="22.9256"/>
<path fill-rule="evenodd" clip-rule="evenodd" d="M13.7854 3.38676C13.5818 3.44966 13.4469 3.56258 13.5047 3.85021C13.5558 4.10451 13.7402 4.14376 14.0036 4.14791C14.26 4.15189 15.4077 4.17283 15.5754 4.12198C15.9085 4.02094 16.0255 3.37306 15.3191 3.36317C15.0577 3.35946 13.9458 3.33718 13.7854 3.38676Z" fill="#134764" stroke="#134764" stroke-width="0.25" stroke-miterlimit="22.9256"/>
</svg>
