<svg width="40" height="26" viewBox="0 0 40 26" fill="none" xmlns="http://www.w3.org/2000/svg">
<g id="&#208;&#161;&#208;&#187;&#208;&#190;&#208;&#185;_x0020_1">
<g id="_2412064786992">
<path id="Vector" fill-rule="evenodd" clip-rule="evenodd" d="M10.9277 21.6893C10.2841 16.9597 13.5055 13.4116 16.6271 12.189C23.3015 9.57494 29.8435 15.4452 29.0044 21.5596C28.8534 22.6594 28.1907 23.3747 27.4522 23.7682C26.4869 24.2825 25.0484 24.1162 23.8761 24.1162C21.3339 24.1162 18.7917 24.1162 16.2494 24.1162C14.7416 24.1162 11.3203 24.5744 10.9277 21.6893ZM27.6123 13.5432C28.709 12.9497 29.179 12.3664 30.8966 12.082C35.495 11.3206 38.8503 15.502 38.6138 18.0228H30.0115C29.6386 17.2436 29.4535 16.4289 28.9838 15.5809C28.4221 14.5664 27.8343 14.0324 27.6123 13.5432ZM1.35797 18.0228C1.00921 14.2388 7.456 9.29971 12.3172 13.6144C10.9209 15.0995 10.5799 16.3192 9.91757 18.0195L1.35797 18.0228ZM31.0554 4.28963C35.3068 3.08386 36.9578 9.28312 32.9971 10.5546C31.0447 11.1814 29.3234 9.91072 28.8482 8.46385C28.1757 6.41625 29.5243 4.72386 31.0554 4.28963ZM7.18579 4.23192C11.4997 3.24781 12.9219 9.53667 8.80547 10.6101C6.82698 11.126 5.21119 9.7698 4.80159 8.25861C4.27475 6.31467 5.65168 4.58187 7.18579 4.23192ZM18.9571 1.36163C24.8063 0.0506693 26.6774 8.79578 20.979 10.1675C15.1752 11.5645 13.1025 2.67372 18.9571 1.36163ZM23.0495 10.7084C23.5327 10.2248 23.8936 10.1016 24.3474 9.53178C25.592 7.96909 26.1087 6.0868 25.491 4.07299C24.8267 1.90673 22.8216 0.0207848 20.0007 0.000171797C15.5115 -0.0326082 13.0399 4.63243 14.6858 8.12353C15.3451 9.5219 15.8444 9.8454 16.8701 10.6557C16.5139 10.9871 14.1654 11.6923 13.4299 12.7053C12.446 12.2662 12.076 11.6391 10.7059 11.2388C10.9717 10.7951 11.7815 10.3947 12.3054 8.9927C13.3673 6.15153 11.2884 2.85906 7.99731 2.87312C4.74058 2.88706 2.61236 6.09915 3.78458 9.14982C4.21308 10.2649 4.74199 10.4592 5.32123 11.1481C4.58353 11.5992 3.90655 11.8235 3.17292 12.3628C1.20736 13.8076 -0.19137 16.5136 0.0213753 19.2917L9.69951 19.292C9.61735 20.6739 9.49143 21.8498 10.0513 23.0093C11.621 26.26 15.6846 25.3873 20.0003 25.3873C24.3118 25.3873 28.3023 26.2623 29.9082 22.9683C30.4591 21.8383 30.3326 20.6002 30.2486 19.2921L39.9792 19.2882C40.134 17.2687 39.4032 15.2928 38.4954 14.0708C37.1938 12.3188 36.4465 12.0888 34.6702 11.1533C36.1933 9.72514 37.0448 8.0741 36.2467 5.8173C34.8753 1.93922 29.0537 1.78872 27.6553 5.96921C27.3209 6.96903 27.3541 8.09146 27.7328 9.07787C27.9262 9.58144 28.1463 9.9122 28.4156 10.2714C28.8429 10.8413 29.0537 10.8336 29.2907 11.2243C27.6713 11.7096 27.2489 12.4216 26.6268 12.698C26.0714 12.3667 25.5748 11.9021 24.9004 11.5391C24.472 11.3086 23.3672 10.9402 23.0495 10.7084Z" fill="#134764"/>
</g>
</g>
</svg>
