<svg width="37" height="32" viewBox="0 0 37 32" fill="none" xmlns="http://www.w3.org/2000/svg">
<g id="&#208;&#161;&#208;&#187;&#208;&#190;&#208;&#185;_x0020_1">
<g id="_2114140406992">
<path id="Vector" fill-rule="evenodd" clip-rule="evenodd" d="M9.89591 14.6459C10.6874 14.8133 10.9168 14.8717 11.7689 14.8715C12.6006 14.8713 12.8968 14.8342 13.6861 14.6616C13.7192 15.3346 13.772 15.7319 13.2613 16.1923C12.3516 17.0121 11.0953 16.9773 10.3618 16.2036C9.8101 15.6216 9.85594 15.4471 9.89591 14.6459ZM7.74415 7.64961C7.91153 7.49159 8.13526 7.51775 8.70821 7.08725C9.06566 6.81866 9.2326 6.44983 9.45968 6.28039C9.69348 6.35615 11.3148 7.87603 13.1572 6.88854C13.3437 6.78853 14.0645 6.30375 14.1731 6.28357C14.4531 6.57052 14.5227 6.7832 14.8879 7.07914C15.0156 7.18263 15.1749 7.31844 15.321 7.38798C15.5013 7.47381 15.7275 7.50364 15.8684 7.64141C15.9467 7.98029 15.7847 8.52015 15.9882 8.79423C16.3276 8.95106 16.7374 8.83901 16.934 9.38413C17.0752 9.77567 16.8837 10.2597 16.4796 10.4086C16.2977 10.4756 16.0374 10.4358 15.9372 10.6067C15.8516 10.7527 16.0438 14.668 11.1763 14.2879C9.51033 14.1577 8.20215 13.1975 7.81549 11.5317C7.69044 10.9929 7.90391 10.5514 7.34698 10.4576C6.38313 10.2953 6.39836 9.0164 7.36838 8.86443C7.97613 8.76921 7.64037 8.16398 7.74415 7.64961ZM6.93668 7.15535C6.7664 6.7717 7.00805 5.60178 7.1976 5.18188C7.49579 4.52131 7.6995 4.34313 8.18012 3.83876C9.13392 2.83781 10.5452 2.84211 11.8184 2.84211C13.4363 2.84211 14.1243 2.76987 15.4251 3.82011C16.3565 4.57217 16.9447 6.29763 16.6877 7.15558C16.109 7.24183 15.1996 6.69783 14.8561 6.22023C14.7818 6.11676 14.5054 5.68046 14.45 5.63491C14.1557 5.39284 13.53 5.99715 13.2651 6.15662C10.8923 7.5849 9.73467 5.20639 9.17808 5.62442C9.13231 5.65878 8.86447 6.08604 8.79474 6.18472C8.40068 6.74243 7.54742 7.22534 6.93668 7.15535ZM7.14137 7.75125L7.14885 8.29434C6.83809 8.45841 6.67068 8.42238 6.40317 8.73833C6.18341 8.99787 6.0538 9.30956 6.05478 9.65386C6.05716 10.4952 6.49972 10.7274 7.13705 11.0197C7.24316 11.3868 7.24253 11.717 7.39178 12.1512C7.56503 12.6554 7.60489 12.6128 7.29656 13.1424C7.00569 13.642 6.15257 14.2844 5.55748 14.2427C5.4902 14.0038 5.51665 6.2898 5.53148 5.40012C5.54309 4.70442 5.84611 3.73332 6.48358 3.3861C6.48692 3.38883 7.01786 4.02485 7.11035 4.12631C6.8362 4.76411 6.54285 4.8844 6.37399 6.04009C6.31388 6.45154 6.31297 6.91542 6.32089 7.33273C6.33318 7.97987 6.74049 7.68444 7.14137 7.75125ZM6.9403 2.45935C6.8405 1.82167 7.59159 1.2349 8.21 1.20245C8.91575 1.1654 9.49715 1.72017 9.59693 2.38742C9.30432 2.56544 8.82263 2.64785 8.43259 2.90714C7.67602 3.41016 7.85166 3.3951 7.50329 3.65997C7.28731 3.53148 7.11483 3.30784 7.01312 3.07355C7.3655 2.82201 7.88006 2.93548 8.19044 2.76263C8.27733 2.55058 8.29513 2.4797 8.13368 2.31264C7.77673 2.20029 7.27953 2.35418 6.9403 2.45935ZM8.25805 16.6578L9.48241 16.0814C9.84965 16.4651 9.85264 16.6659 10.3738 16.9835C11.4147 17.6176 12.8624 17.503 13.7197 16.6001C13.869 16.4429 13.9606 16.2274 14.1487 16.0786L18.5308 18.2809C18.9745 18.5665 19.5746 19.2439 19.8181 19.7039C20.2382 20.4975 20.2623 21.1255 20.2622 22.0175L20.2621 26.1715C20.2614 26.3472 20.2271 26.6606 20.3444 26.7981C20.4778 26.9543 20.6564 26.896 20.7794 26.7693C20.9091 26.4583 20.8376 22.9905 20.8376 22.3636C20.8376 20.9008 20.8292 20.0035 19.9259 18.8071C19.2008 17.8468 18.3608 17.5308 17.2872 16.9926C16.3265 16.5111 15.1972 16.025 14.2871 15.4872L14.2808 14.4099C14.8646 13.9241 15.1276 13.9906 15.7465 13.0878C16.233 12.3779 16.3329 11.8723 16.4744 11.0458C16.7048 10.8904 17.5287 10.7178 17.5628 9.70484C17.5899 8.90326 17.1168 8.58029 16.4857 8.30754L16.4698 7.7428C16.7648 7.70951 16.9733 7.84311 17.2312 7.65085C17.4418 7.02422 17.1974 5.53324 16.9161 4.90227C15.6006 1.95138 12.7565 2.19513 10.1909 2.29444C10.0754 2.09178 10.0668 1.81878 9.89182 1.54052C9.73747 1.29513 9.58057 1.19888 9.42001 1H7.07694C6.6604 1.52748 6.31236 1.66615 6.33178 2.73004C6.02733 3.04308 5.77727 3.17919 5.49146 3.574C5.28212 3.86315 5.05348 4.45725 5.00484 4.81123C4.88474 5.68551 4.95905 12.3103 4.95665 14.105C4.95625 14.3894 4.88607 14.662 5.11158 14.8277C5.60255 14.9795 6.43384 14.6481 6.85793 14.3857C7.36074 14.0745 7.61414 13.7151 7.91527 13.2217C8.11585 13.3115 8.35078 13.7042 8.54774 13.8624C8.79749 14.0628 9.04288 14.2124 9.3154 14.3991L9.31395 15.4884C8.35848 16.2698 5.36085 17.089 3.93192 18.5335C3.1344 19.3398 2.78727 20.4314 2.76893 21.5703C2.74646 22.9649 2.76835 24.3791 2.76835 25.7759C2.76835 25.9795 2.73424 26.6179 2.82086 26.7647C2.99229 27.0551 3.33587 26.8972 3.34491 26.4711C3.37523 25.0408 3.19399 21.2021 3.53313 20.3105C3.95537 19.2006 4.45568 18.618 5.49284 18.0652C5.96096 17.8157 8.0264 16.8838 8.25805 16.6578Z" fill="#134764" stroke="#134764" stroke-width="0.2" stroke-miterlimit="22.9256"/>
<path id="Vector_2" fill-rule="evenodd" clip-rule="evenodd" d="M25.5103 27.3984C25.4484 27.1394 25.4533 24.9952 25.5184 24.7378C25.6462 24.6995 32.2114 24.6576 32.6275 24.7497C33.9346 25.0391 34.0422 27.0526 32.6153 27.3796C32.2491 27.4636 28.5801 27.4142 27.8909 27.4142C27.2435 27.4142 26.0946 27.4806 25.5103 27.3984ZM35.4152 30.7277C36.0265 30.1518 36.1335 29.1838 35.7622 28.4361C35.3346 27.5751 34.6223 27.4606 33.7249 27.4065C34.0082 26.9194 34.2464 26.691 34.2317 26.0222C34.2204 25.5103 34.0161 25.0853 33.6937 24.715C34.4058 24.6636 34.7054 24.7367 35.2969 24.28C36.6009 23.2732 36.0066 20.9827 34.21 20.8612C32.986 20.7784 31.4711 20.8551 30.2152 20.8551C29.8793 20.8551 28.5372 20.6828 28.659 21.2012C28.73 21.5033 29.1839 21.4311 29.4239 21.4306C30.2556 21.429 33.977 21.3826 34.3789 21.467C35.5043 21.7034 35.7957 23.185 34.8884 23.8707C34.2924 24.3212 32.0257 24.1322 31.2042 24.1322C30.5458 24.1322 27.6705 24.1657 27.2725 24.1197C27.2182 23.624 27.2606 22.8862 27.2606 22.3638C27.2606 21.7355 27.3945 20.8313 26.954 20.8667C26.6361 20.8923 26.6837 21.2923 26.6849 21.523L26.6791 24.1201C26.2192 24.1935 25.3597 24.0312 24.9869 24.2072C24.8161 24.5731 24.9369 26.7965 24.9059 27.3917C24.4603 27.4772 12.0688 27.414 10.2857 27.414C9.98548 27.4139 9.26833 27.2768 9.32938 27.752C9.37505 28.1075 10.1388 27.9892 10.434 27.9892H32.9845C33.717 27.9892 34.6118 27.845 35.1227 28.4838C35.5717 29.0452 35.5273 29.9672 34.9339 30.3951C34.3134 30.8426 33.287 30.6965 32.5395 30.6964L3.41176 30.6937C2.63702 30.6943 1.97063 30.6533 1.65866 29.8063C1.40005 29.1041 1.77467 28.3351 2.4522 28.08C3.04472 27.857 4.55086 28.1324 4.90423 27.9119C5.28563 27.3085 4.32194 27.4139 4.00519 27.414C3.55489 27.414 2.96123 27.3796 2.52932 27.4625C1.7261 27.6165 1.13162 28.277 1.01865 29.0868C0.903964 29.9089 1.32576 30.7155 2.07856 31.0668C2.75639 31.383 4.15865 31.2689 4.94479 31.2716L32.8856 31.2701C33.7886 31.2671 34.7023 31.3994 35.4152 30.7277Z" fill="#134764" stroke="#134764" stroke-width="0.2" stroke-miterlimit="22.9256"/>
<path id="Vector_3" fill-rule="evenodd" clip-rule="evenodd" d="M22.7638 14.665C23.4738 14.7324 23.1027 14.8721 24.6274 14.872C26.0922 14.8718 25.7921 14.7366 26.5526 14.6519C26.5737 15.3875 26.6551 15.6739 26.1165 16.1895C25.2706 16.9992 24.0085 16.9974 23.2168 16.2103C22.6846 15.6812 22.7028 15.436 22.7638 14.665ZM20.6081 7.66973C21.4365 7.42446 22.3325 7.73302 24.5196 6.97706C24.9454 6.82991 25.6665 6.47203 26.036 6.21487C26.2196 6.0871 27.2771 5.243 27.342 5.23571C27.5984 6.02274 26.8288 8.00976 28.3138 8.68958C28.8442 8.9324 29.5997 8.71754 29.7957 9.42923C30.0655 10.4096 29.03 10.3661 28.785 10.5955C28.6463 10.8047 28.8349 11.5596 28.1611 12.5445C27.7747 13.1092 27.384 13.4567 26.7856 13.7918C25.6274 14.4404 23.694 14.4943 22.509 13.9016C21.9241 13.609 21.5135 13.2224 21.1515 12.6834C20.5219 11.7461 20.689 11.064 20.5516 10.661C20.4578 10.3858 20.0445 10.5435 19.7109 10.22C19.4538 9.97077 19.4166 9.57811 19.5922 9.2707C19.8659 8.79148 20.1312 8.9659 20.4322 8.81947C20.7114 8.68362 20.4881 7.96535 20.6081 7.66973ZM27.9588 4.82252C28.5761 4.94725 28.7438 5.50769 28.7413 6.09353C28.7386 6.74555 28.7847 7.59149 28.7284 8.21506C28.1243 8.09332 27.9459 7.49812 27.9461 6.9352C27.9463 6.29769 27.8978 5.43116 27.9588 4.82252ZM19.7533 7.12725C19.5964 5.50951 20.4467 3.88261 21.9338 3.20373C23.0482 2.69501 24.7671 2.84237 26.1605 2.84237C26.5728 2.84237 27.1542 2.75294 27.4539 3.07047C28.0857 3.73978 27.2815 4.54396 26.7433 4.94489C26.1001 5.42392 25.6863 5.83583 24.9121 6.17952C24.1127 6.53445 23.4313 6.7673 22.5549 6.88714C22.1228 6.9462 20.0383 7.19468 19.7533 7.12725ZM22.7726 2.34349C22.3614 2.45149 22.0952 2.54636 21.7086 2.68421C20.4755 3.17074 19.4426 4.5879 19.2423 5.89689C18.8692 8.33467 19.5187 7.63894 19.9996 7.74622L20.0029 8.29234C19.368 8.58997 18.9152 8.8404 18.9045 9.65436C18.8945 10.4077 19.3575 10.7868 19.9961 11.0204C20.1744 12.3393 20.4677 12.9109 21.3526 13.8204C21.5964 14.0709 21.9809 14.227 22.1812 14.4221L22.1781 15.4626C22.1289 15.5864 20.1925 16.49 19.8261 16.6732C19.5906 16.791 19.11 16.9076 19.1279 17.2178C19.1625 17.8165 20.2049 17.1368 20.7173 16.8727C21.0232 16.7149 22.0908 16.1309 22.3434 16.0908C22.7148 16.4389 23.1656 17.3982 24.6769 17.3759C26.2669 17.3525 26.7171 16.3014 26.9961 16.0852C27.566 16.303 28.2482 16.7076 28.8244 16.9811C29.8066 17.4472 31.5554 18.2596 32.2072 19.0357C32.6068 19.5114 32.8529 20.2138 32.9854 20.2886C33.1501 20.3816 33.3784 20.3255 33.4224 20.1288C33.5267 19.6621 32.481 18.3069 31.6929 17.8206C31.0037 17.3954 29.7127 16.7703 28.9833 16.4278C28.495 16.1985 27.5787 15.7626 27.148 15.4873L27.1331 14.2571C27.9931 13.6223 28.4732 13.3324 28.9434 12.3137C29.1773 11.8591 29.2314 11.5405 29.3118 11.0387C29.725 10.8252 30.4087 10.6237 30.412 9.65441C30.4132 9.32083 30.2935 9.00368 30.0724 8.76193C29.1477 7.75084 29.3144 9.44785 29.3109 6.05727C29.2863 4.99544 29.0186 4.70854 28.1497 4.24783C28.2899 3.66458 28.3798 3.33121 27.9758 2.79462C27.6201 2.32225 27.1483 2.26452 26.5561 2.27001C25.4075 2.28062 23.865 2.17283 22.7726 2.34349Z" fill="#134764" stroke="#134764" stroke-width="0.2" stroke-miterlimit="22.9256"/>
<path id="Vector_4" fill-rule="evenodd" clip-rule="evenodd" d="M26.1894 11.9082C26.4347 11.6216 26.9615 10.4068 26.1476 10.4932C25.8733 10.8326 26.1008 11.1504 25.6689 11.6337C25.3738 11.9639 25.0104 12.1394 24.5256 12.0985C24.1258 12.0648 23.704 11.7924 23.5074 11.467C23.2095 10.9742 23.4813 10.4311 22.8832 10.4931C22.0564 11.3361 24.3965 14.0026 26.1894 11.9082Z" fill="#134764" stroke="#134764" stroke-width="0.2" stroke-miterlimit="22.9256"/>
<path id="Vector_5" fill-rule="evenodd" clip-rule="evenodd" d="M12.3324 12.6433C12.5167 12.456 12.9489 12.4202 13.3216 11.9489C13.6077 11.5872 13.7263 11.1556 13.7393 10.6888C13.6059 10.4665 13.3303 10.3602 13.2059 10.6418C13.1294 10.8147 13.1725 11.0596 13.0452 11.323C12.842 11.7436 12.5347 11.9816 12.0663 12.0736C11.5046 12.2063 10.916 11.895 10.6471 11.4186C10.4926 11.1449 10.4831 10.6755 10.4039 10.5768C10.3251 10.4786 9.84616 10.2714 9.90197 10.9237C9.94627 11.4416 10.244 12.0203 10.6593 12.2958C11.404 12.7899 11.5452 12.609 12.3324 12.6433Z" fill="#134764" stroke="#134764" stroke-width="0.2" stroke-miterlimit="22.9256"/>
<path id="Vector_6" fill-rule="evenodd" clip-rule="evenodd" d="M6.76432 23.0598C6.46721 23.3598 6.60182 25.3787 6.60105 26.1221C6.60077 26.3916 6.51127 26.99 6.96986 26.8781C7.25905 26.8076 7.17011 26.2069 7.17009 25.9737L7.17011 23.7978C7.17072 23.3766 7.28444 23.0267 6.76432 23.0598Z" fill="#134764" stroke="#134764" stroke-width="0.2" stroke-miterlimit="22.9256"/>
<path id="Vector_7" fill-rule="evenodd" clip-rule="evenodd" d="M16.4416 26.6657C16.5816 26.7989 16.4604 26.9306 16.8791 26.8708L17.0055 26.6657L17.0115 23.6491C17.0132 23.2777 17.0642 23.0245 16.6079 23.0605C16.3023 23.342 16.4366 24.3143 16.4366 24.7373C16.4366 25.3765 16.4242 26.0281 16.4416 26.6657Z" fill="#134764" stroke="#134764" stroke-width="0.2" stroke-miterlimit="22.9256"/>
<path id="Vector_8" fill-rule="evenodd" clip-rule="evenodd" d="M26.4815 8.62788C26.7736 8.46928 26.9776 8.94228 26.6613 9.07049C26.4207 9.16807 26.1057 8.8319 26.4815 8.62788ZM26.3395 8.04683C25.2847 8.35628 25.7247 9.96713 26.8332 9.6321C27.8038 9.33877 27.4097 7.73288 26.3395 8.04683Z" fill="#134764" stroke="#134764" stroke-width="0.2" stroke-miterlimit="22.9256"/>
<path id="Vector_9" fill-rule="evenodd" clip-rule="evenodd" d="M13.6606 8.60271C13.9033 8.51746 14.1326 8.92038 13.802 9.06903C13.5365 9.1884 13.2583 8.74397 13.6606 8.60271ZM13.4882 8.0471C12.4308 8.37549 12.9024 9.96719 13.9737 9.63281C14.9948 9.31414 14.5092 7.72999 13.4882 8.0471Z" fill="#134764" stroke="#134764" stroke-width="0.2" stroke-miterlimit="22.9256"/>
<path id="Vector_10" fill-rule="evenodd" clip-rule="evenodd" d="M9.64573 8.91268C9.55911 8.52956 10.0699 8.4925 10.132 8.77228C10.2137 9.14016 9.70694 9.1834 9.64573 8.91268ZM9.66755 8.04735C8.6436 8.32164 9.0181 9.9245 10.1255 9.64089C11.1032 9.3905 10.7903 7.74659 9.66755 8.04735Z" fill="#134764" stroke="#134764" stroke-width="0.2" stroke-miterlimit="22.9256"/>
<path id="Vector_11" fill-rule="evenodd" clip-rule="evenodd" d="M22.5061 8.9597C22.4402 8.47899 22.8796 8.52602 22.9694 8.74377C23.0747 8.99914 22.7874 9.23819 22.5061 8.9597ZM22.5258 8.04711C21.4925 8.30322 21.879 9.93301 22.9762 9.63719C23.9473 9.37537 23.6527 7.76782 22.5258 8.04711Z" fill="#134764" stroke="#134764" stroke-width="0.2" stroke-miterlimit="22.9256"/>
<path id="Vector_12" fill-rule="evenodd" clip-rule="evenodd" d="M6.13898 27.9389C6.43738 28.0384 6.98602 27.9888 7.31874 27.9888C7.58462 27.9888 8.25607 28.1206 8.25262 27.7058C8.24918 27.2979 7.59933 27.4136 7.31874 27.4136C6.97231 27.4136 6.45315 27.3646 6.13744 27.4703C6.02561 27.6619 6.02811 27.7474 6.13898 27.9389Z" fill="#134764" stroke="#134764" stroke-width="0.2" stroke-miterlimit="22.9256"/>
</g>
</g>
</svg>
