<svg width="24" height="25" viewBox="0 0 24 25" fill="none" xmlns="http://www.w3.org/2000/svg">
<path fill-rule="evenodd" clip-rule="evenodd" d="M5.5 22.5L1.65826 22.3528C1.53993 21.7668 1.48378 20.5634 1.72277 20.0927C1.66326 19.1118 2.1087 17.916 2.45898 17.184C3.40329 15.2107 5.37349 13.722 7.4519 13.0409L8.82925 12.5882C8.55774 12.3001 8.46184 12.2928 8.15277 12.0136C6.43545 10.4622 5.64091 8.19536 6.37644 5.81192C7.05083 3.62658 9.13346 1.67205 11.9998 1.67205C16.6214 1.67205 19.0311 6.54441 17.3773 9.98417C16.5319 11.7425 15.915 11.8069 15.1725 12.5882L15.5004 12.7457C17.2517 13.3383 18.2712 13.4433 19.9826 15.0851C20.9269 15.9909 22.4011 18.0314 22.2759 20.095C22.5161 20.5641 22.4594 21.7684 22.3414 22.3952L19.5 22.5V23L23 23.0107C23 20.0247 23.001 17.9271 21.5343 15.8422C20.5795 14.4849 19.4883 13.6879 18.072 12.9578L16.6434 12.3405C16.6319 12.3081 16.5973 12.3147 16.5757 12.2997C16.7749 11.9885 16.9368 11.9259 17.1682 11.6021C18.6239 9.56512 19.0547 7.20526 17.9767 4.88128C15.5618 -0.324904 8.39048 -0.284063 5.9926 4.94643C5.13778 6.81101 5.30508 9.1418 6.35822 10.9237C6.85645 11.7667 7.21114 11.9608 7.42455 12.2997L6.58967 12.6589C5.93327 12.9111 5.08395 13.3909 4.53661 13.7787C1.14177 16.1839 1 19.035 1 23.0112L5.5 23V22.5Z" fill="#134764" stroke="#134764" stroke-width="0.666709" stroke-miterlimit="22.9256"/>
<path d="M22.3418 22.3949C22.4598 21.7682 22.5166 20.5639 22.2764 20.0947L22.292 22.3052" stroke="#134764" stroke-width="0.666709" stroke-miterlimit="22.9256"/>
<path fill-rule="evenodd" clip-rule="evenodd" d="M7.82756 20.4321C8.117 20.5147 8.44974 20.6948 8.7615 20.8094C10.9956 21.6304 13.4651 21.6441 15.7014 20.8255C16.0236 20.7076 16.3684 20.5226 16.6775 20.4294L16.6755 23.8522L7.83368 23.855L7.82756 20.4321ZM7.82618 17.4153C10.6003 17.3662 13.8512 17.4143 16.6776 17.4153L16.6776 19.5257C15.1023 20.1705 14.2454 20.6552 12.223 20.6451C10.2107 20.6351 9.39219 20.1656 7.82443 19.5248L7.82618 17.4153ZM10.6372 16.6073C10.6372 15.6144 10.8832 15.8096 12.2805 15.8096C13.6736 15.8096 13.848 15.6194 13.8802 16.625L10.6372 16.6073ZM9.85162 16.626C7.74712 16.626 7.02479 16.2782 7.0304 17.8611C7.03511 19.1939 7.03071 20.5276 7.03071 21.8606C7.03071 23.9971 6.68964 24.6545 8.28094 24.6496L16.3379 24.6501C17.0069 24.6531 17.4468 24.4891 17.4739 23.8051C17.5363 22.233 17.4663 19.4924 17.4737 17.8037C17.4803 16.2925 16.6795 16.626 14.6522 16.626C14.656 16.2759 14.6835 16.0187 14.546 15.7124C14.444 15.485 14.2608 15.2914 14.0547 15.1735C13.624 14.9272 12.7786 15.0154 12.2233 15.0154C10.9396 15.0154 9.83144 14.7754 9.85162 16.626Z" stroke="#134764" stroke-width="0.5" stroke-miterlimit="22.9256"/>
</svg>
