<svg xmlns="http://www.w3.org/2000/svg" width="79" height="64" viewBox="0 0 79 64" fill="none">
  <path fill-rule="evenodd" clip-rule="evenodd" d="M71.3921 30.5666C72.9045 31.8015 72.2221 41.4907 72.1888 44.0012C72.1577 46.3496 72.2804 48.4952 71.4969 50.6105C68.182 59.5597 50.7031 58.56 44.0025 55.3627C38.0956 52.5441 34.0053 46.9638 33.545 40.5032C33.4404 39.035 33.6692 38.5868 34.7177 38.0505C37.5714 36.5906 45.6693 36.5792 45.5503 40.0946C45.4261 43.765 43.7939 47.0004 41.7197 49.8463C41.4707 50.188 41.5466 49.9968 41.4154 50.3566C42.2904 51.3847 45.3638 53.1417 47.1948 53.6248C47.4544 53.3994 47.3369 53.5063 47.5541 53.2432C50.4233 49.7673 53.007 42.2602 52.0583 38.0298C50.747 32.1825 43.8206 30.4825 38.3746 30.6398C35.4989 30.8984 33.0648 31.3789 30.9859 32.6882C29.2571 33.777 27.4812 35.4747 26.9653 38.1562C26.0091 43.1258 28.7932 49.5015 30.9371 52.7129C35.7568 59.9326 44.7976 64.6646 57.9007 63.9239C69.8485 63.2484 78.6634 58.6195 78.8442 46.6945C78.8914 43.58 78.9264 40.4647 78.9677 37.3501C79.0142 33.8407 79.1599 32.0988 78.0297 28.9611C76.9123 25.8589 74.6685 22.6053 72.6082 20.2137L70.5281 17.7812C69.9993 17.5078 67.3532 14.6644 66.6755 14.1191C66.3592 13.8647 66.1839 13.7615 65.9037 13.4829C64.0499 11.6408 59.6648 8.597 57.517 7.11655C54.3502 4.93365 49.5999 2.4394 45.689 1.12968C44.0471 0.579806 41.1948 0.152499 40.9625 0C39.67 0.218199 38.2409 0.110493 36.7663 0.387055C24.6258 2.66376 3.08791 18.6671 0.505125 30.6587C-0.00298595 33.0176 0.176307 36.7314 0.142698 39.2654C0.0655116 45.0907 -0.671397 49.5971 2.15823 54.6481C5.42883 60.4862 13.3109 62.8651 20.259 63.4402C23.0902 63.6745 25.9858 63.6953 28.7972 63.3679C32.915 62.8884 32.9571 62.4565 36.0235 61.7537L34.4003 60.4547C32.6522 59.0895 31.8279 58.2072 30.2956 56.5957C23.2324 57.9554 9.9765 57.7311 7.30467 49.815C6.41696 47.1849 6.78242 43.2276 6.82115 40.3098C6.85731 37.5813 6.60036 33.0099 7.43062 30.6963C8.27341 28.3475 10.0517 25.9601 11.3593 24.4171C11.7587 23.9458 12.195 23.4261 12.5989 22.9947C13.0735 22.4876 13.3831 22.1274 13.8137 21.692L16.4116 19.2527C16.8675 18.805 17.3452 18.5429 17.7993 18.1137C21.9033 14.2351 29.8604 9.56861 35.2436 7.5227C38.3719 6.3338 40.4528 6.22856 43.7417 7.30118C48.1834 8.74976 53.3123 12.0284 56.8929 14.6244C58.5305 15.8117 60.4162 17.2403 61.8389 18.6571C62.0655 18.8829 62.2653 19.0293 62.5222 19.2404C63.0429 19.6685 63.4002 20.0587 63.8817 20.5409C64.357 21.0169 64.6353 21.2601 65.1794 21.7624C66.6077 23.081 71.3268 28.9157 71.3921 30.5666Z" fill="white"/>
  <path fill-rule="evenodd" clip-rule="evenodd" d="M38.654 12.9068C29.665 14.5518 32.2707 27.2516 41.0303 25.7686C44.2802 25.2184 47.2258 22.0653 46.4905 18.1647C45.8989 15.0268 42.7226 12.1622 38.654 12.9068Z" fill="white"/>
</svg>
