<svg xmlns="http://www.w3.org/2000/svg" width="25" height="27" viewBox="0 0 25 27" fill="none">
  <path d="M21.2557 6.87062C17.9459 6.51386 14.6163 6.33008 11.2967 6.33008C9.32871 6.33008 7.36076 6.43819 5.39282 6.6544L3.36523 6.87062" stroke="#DD1919" stroke-width="1.5" stroke-linecap="round" stroke-linejoin="round"/>
  <path d="M8.83203 5.77819L9.05069 4.36198C9.20972 3.33495 9.32899 2.56738 11.0087 2.56738H13.6128C15.2925 2.56738 15.4217 3.37819 15.5708 4.37279L15.7894 5.77819" stroke="#DD1919" stroke-width="1.5" stroke-linecap="round" stroke-linejoin="round"/>
  <path d="M19.1186 10.2861L18.4725 21.1726C18.3632 22.8699 18.2737 24.1888 15.5007 24.1888H9.1198C6.34678 24.1888 6.25733 22.8699 6.148 21.1726L5.50195 10.2861" stroke="#DD1919" stroke-width="1.5" stroke-linecap="round" stroke-linejoin="round"/>
  <path d="M10.6504 18.2432H13.9601" stroke="#DD1919" stroke-width="1.5" stroke-linecap="round" stroke-linejoin="round"/>
  <path d="M9.82422 13.9189H14.7938" stroke="#DD1919" stroke-width="1.5" stroke-linecap="round" stroke-linejoin="round"/>
</svg>