<svg width="25" height="23" viewBox="0 0 25 23" fill="none" xmlns="http://www.w3.org/2000/svg">
<path fill-rule="evenodd" clip-rule="evenodd" d="M10.2718 17.0043C10.2772 16.7827 10.38 16.2277 10.4323 16.0214L11.3548 16.8449C11.1172 16.9049 10.5131 16.9993 10.2718 17.0043ZM13.602 15.6403L11.783 13.9452L18.4169 7.82625L20.2894 9.52208L13.602 15.6403ZM20.2095 6.20443C20.836 5.35089 21.3286 6.05333 21.7608 6.45032C22.1929 6.84732 22.9576 7.2998 22.0416 7.86325L20.2095 6.20443ZM17.4942 15.3825C17.4942 16.0124 17.5933 19.5755 17.3891 20.0039C17.2506 20.2947 16.826 20.641 16.3707 20.641H3.58444C3.16448 20.641 2.56796 20.1437 2.56796 19.7073V3.29274C2.56796 2.87668 3.13153 2.35897 3.58444 2.35897H16.3707C16.9935 2.35897 17.4942 2.89811 17.4942 3.48932C17.4942 5.67525 17.6925 5.19928 16.9191 5.90972L8.7872 13.3798C8.17716 13.9384 8.16492 14.038 8.02189 14.9866C7.92381 15.637 7.81141 16.3232 7.71311 16.9636C7.58798 17.7788 7.15851 19.0696 8.29714 19.4572C8.69112 19.5913 8.97052 19.5312 9.37875 19.4766C10.1021 19.3798 13.2673 19.0492 13.6737 18.8024C14.2971 18.4238 17.0417 15.6608 17.4942 15.3825ZM0 3.68589V19.3141C0 20.3244 0.365874 21.3286 1.14845 21.9942C1.90114 22.6343 2.69894 23 4.11944 23H15.9962C17.4679 23 18.3683 22.518 19.0865 21.8089C19.3912 21.5081 19.722 20.9665 19.8682 20.512C20.1259 19.711 20.0087 15.522 20.0087 14.4979C20.0087 14.1703 20.0111 13.842 20.0082 13.5146C20.0031 12.9345 19.9753 13.0749 20.3162 12.7654L23.66 9.69391C24.4668 8.9528 25.1126 8.36369 24.9835 6.93033C24.8862 5.85001 23.8718 5.09884 23.2053 4.48449C22.4124 3.75379 22.0099 3.58987 21.0015 3.45857C20.662 3.41438 20.3301 3.53188 20.0087 3.53846C20.0087 1.36228 18.2548 0 15.9427 0H4.01243C1.64115 0 0 1.5076 0 3.68589Z" fill="#373737"/>
<path fill-rule="evenodd" clip-rule="evenodd" d="M5.0293 6.8312C5.0293 7.57194 5.56249 8.05983 6.15278 8.05983H13.8566C14.4894 8.05983 15.0336 7.53312 15.0336 6.88035C15.0336 6.29821 14.4369 5.75 13.8032 5.75H6.31328C5.60267 5.75 5.0293 6.24992 5.0293 6.8312Z" fill="#373737"/>
</svg>
