<svg width="22" height="22" viewBox="0 0 22 22" fill="none" xmlns="http://www.w3.org/2000/svg">
<path fill-rule="evenodd" clip-rule="evenodd" d="M6.23751 13.9831C6.32563 14.0248 7.64701 15.401 7.70104 15.5103L5.55166 16.0379L6.23751 13.9831ZM7.582 12.2963C7.89454 11.9981 8.20134 11.694 8.51369 11.3961C10.2424 9.7475 11.9418 8.05621 13.6553 6.42248C13.7734 6.30986 13.9759 6.08122 14.1111 5.98625C14.1855 6.02073 15.8638 7.74385 15.9719 7.88975C15.9403 7.96386 14.3244 9.51812 14.1099 9.71993C12.5533 11.1842 10.979 12.7715 9.42222 14.2457C9.22695 14.4307 8.65361 15.0519 8.4793 15.1438C8.36157 15.0701 8.10736 14.777 7.99973 14.657C7.75564 14.3848 6.68705 13.3684 6.63885 13.2208L7.582 12.2963ZM14.6986 5.42925C14.7769 5.30184 15.4377 4.67376 15.5327 4.63416C15.7385 4.82649 17.3221 6.46011 17.3731 6.55533L16.5442 7.34117C16.4391 7.26639 16.176 6.98127 16.0675 6.86318C15.8539 6.63071 14.7773 5.55228 14.6986 5.42925ZM18.2806 6.74152C18.4353 6.45818 18.2118 6.2811 18.0894 6.1533L16.0102 3.9948C15.5133 3.4658 15.4166 3.64646 14.9928 4.04155C14.3922 4.60137 13.8499 5.16813 13.2711 5.71022C12.6796 6.26413 12.1423 6.81103 11.562 7.36337C9.70899 9.12713 7.82601 11.0112 5.96174 12.7812C5.74747 12.9847 5.74327 12.9488 5.63095 13.2965L4.7981 15.8316C4.67822 16.1855 4.34277 16.9029 4.87497 16.99C5.03575 17.0164 7.70155 16.3139 8.27921 16.164C8.63451 16.0718 8.62078 16.1122 8.85099 15.8887L15.7289 9.23416C16.1062 8.87477 18.2179 6.85635 18.2806 6.74152Z" fill="#373737"/>
<rect x="0.75" y="0.75" width="20.5" height="20.5" rx="5.25" stroke="#373737" stroke-width="1.5"/>
</svg>
