<svg width="25" height="24" viewBox="0 0 25 24" fill="none" xmlns="http://www.w3.org/2000/svg">
<path d="M9.01668 22H15.0278C20.0371 22 22.0409 20 22.0409 15V9C22.0409 4 20.0371 2 15.0278 2H9.01668C4.00738 2 2.00366 4 2.00366 9V15C2.00366 20 4.00738 22 9.01668 22Z" stroke="#373737" stroke-width="1.5" stroke-linecap="round" stroke-linejoin="round"/>
<path d="M9.11694 12V10.52C9.11694 8.60999 10.4695 7.83999 12.1225 8.78999L13.4049 9.52999L14.6873 10.27C16.3404 11.22 16.3404 12.78 14.6873 13.73L13.4049 14.47L12.1225 15.21C10.4695 16.16 9.11694 15.38 9.11694 13.48V12Z" stroke="#373737" stroke-width="1.5" stroke-miterlimit="10" stroke-linecap="round" stroke-linejoin="round"/>
</svg>
