<svg width="21" height="23" viewBox="0 0 21 23" fill="none" xmlns="http://www.w3.org/2000/svg">
<path fill-rule="evenodd" clip-rule="evenodd" d="M17.6451 21.6701L17.6333 19.9333H19.3583L17.6451 21.6701ZM16.8667 19.55V22.2333H0.766667V4.6H19.9333V19.1667H17.25C17.0182 19.1667 16.8667 19.3182 16.8667 19.55ZM0.766667 2.3H1.53333V3.06667H2.3V2.3H3.06667V3.06667H3.83333V2.3H4.6V3.06667H5.36667V2.3H6.13333V3.06667H6.9V2.3H7.66667V3.06667H8.43333V2.3H9.2V3.06667H9.96667V2.3H10.7333V3.06667H11.5V2.3H12.2667V3.06667H13.0333V2.3H13.8V3.06667H14.5667V2.3H15.3333V3.06667H16.1V2.3H16.8667V3.06667H17.6333V2.3H18.4V3.06667H19.1667V2.3H19.9333V3.83333H0.766667V2.3ZM2.3 1.19793C2.3 0.984252 2.49404 0.766666 2.68333 0.766666C2.87263 0.766666 3.06667 0.984252 3.06667 1.19793V1.53333H2.3V1.19793ZM17.5854 0.766666C18.0175 0.766666 18.4 0.753372 18.4 1.19793V1.53333H17.6333V1.00626C17.6333 0.945057 17.6023 0.804413 17.5854 0.766666ZM16.0521 0.766666C16.4842 0.766666 16.8667 0.753372 16.8667 1.19793V1.53333H16.1V1.00626C16.1 0.945057 16.069 0.804413 16.0521 0.766666ZM14.5188 0.766666C14.9509 0.766666 15.3333 0.753372 15.3333 1.19793V1.53333H14.5667V1.00626C14.5667 0.945057 14.5356 0.804413 14.5188 0.766666ZM12.9854 0.766666C13.4175 0.766666 13.8 0.753372 13.8 1.19793V1.53333H13.0333V1.00626C13.0333 0.945057 13.0023 0.804413 12.9854 0.766666ZM11.4521 0.766666C11.8842 0.766666 12.2667 0.753372 12.2667 1.19793V1.53333H11.5V1.00626C11.5 0.945057 11.469 0.804413 11.4521 0.766666ZM9.91876 0.766666C10.3509 0.766666 10.7333 0.753372 10.7333 1.19793V1.53333H9.96667V1.00626C9.96667 0.945057 9.93562 0.804413 9.91876 0.766666ZM8.38543 0.766666C8.81754 0.766666 9.2 0.753372 9.2 1.19793V1.53333H8.43333V1.00626C8.43333 0.945057 8.40229 0.804413 8.38543 0.766666ZM6.85209 0.766666C7.2842 0.766666 7.66667 0.753372 7.66667 1.19793V1.53333H6.9V1.00626C6.9 0.945057 6.86896 0.804413 6.85209 0.766666ZM5.31876 0.766666C5.75087 0.766666 6.13333 0.753372 6.13333 1.19793V1.53333H5.36667V1.00626C5.36667 0.945057 5.33562 0.804413 5.31876 0.766666ZM3.78543 0.766666C4.21754 0.766666 4.6 0.753372 4.6 1.19793V1.53333H3.83333V1.00626C3.83333 0.945057 3.80229 0.804413 3.78543 0.766666ZM1.53333 1.05417V1.53333H0V23H17.3458C17.519 23 19.6093 20.8084 19.8974 20.5203C20.0405 20.3773 20.7 19.8133 20.7 19.6458V1.53333H19.1667V1.05417C19.1667 0.527038 18.6396 0 18.1125 0H2.5875C2.06037 0 1.53333 0.527038 1.53333 1.05417Z" fill="#373737"/>
<path fill-rule="evenodd" clip-rule="evenodd" d="M2.2998 19.1667C2.2998 19.7903 3.13709 19.4813 3.59324 19.406L6.44138 18.9479C7.74765 18.7554 9.06403 18.6245 10.3631 18.4612C11.2541 18.3492 14.467 18.1154 15.5265 18.1142L16.579 18.0646C16.9601 18.0647 17.3371 18.0706 17.6464 18.0299C18.0274 17.9799 18.3998 18.0954 18.3998 17.6334C18.3998 17.1879 17.9732 17.25 17.6811 17.25C16.9184 17.25 16.2986 17.3015 15.5721 17.2973C15.1907 17.2951 14.977 17.3474 14.5654 17.3448C14.006 17.3412 10.2376 17.6554 9.55544 17.7494C8.89155 17.8409 8.28403 17.8981 7.62715 17.9774C6.38322 18.1275 4.19586 18.4695 2.95044 18.7152C2.62121 18.7802 2.2998 18.7951 2.2998 19.1667Z" fill="#373737"/>
<path fill-rule="evenodd" clip-rule="evenodd" d="M9.96655 8.43297V11.4996C9.96655 11.9642 10.7249 12.1168 10.7363 11.4069L10.7332 8.81631C10.9335 8.8698 10.8607 8.86932 11.0276 9.28861L11.4668 10.3828C11.6862 10.8689 12.0803 10.8689 12.2997 10.3828L12.8442 9.01064C12.9149 8.84018 12.8528 8.86449 13.0332 8.81631L13.0301 11.4069C13.0416 12.1168 13.7999 11.9642 13.7999 11.4996V8.43297C13.7999 7.93186 13.2257 8.04964 12.6499 8.04964C12.2476 8.04964 12.0065 8.87635 11.9311 9.19964H11.8353C11.7596 8.87479 11.5159 8.04964 11.1166 8.04964C10.5407 8.04964 9.96655 7.93186 9.96655 8.43297Z" fill="#373737"/>
<path fill-rule="evenodd" clip-rule="evenodd" d="M11.8834 13.4171H13.0334V14.1837H11.8834V13.4171ZM11.1167 13.0337V16.1004C11.1167 16.3322 11.2682 16.4837 11.5 16.4837C12.0266 16.4837 11.8834 15.7761 11.8834 15.2379L12.6482 16.246C12.8936 16.5791 13.0861 16.4837 13.8 16.4837C14.0318 16.4837 14.1834 16.3322 14.1834 16.1004C14.1834 15.6215 13.6913 15.7171 13.225 15.7171C13.1353 15.5831 13.0702 15.4939 12.965 15.3542C12.8723 15.2312 12.7352 15.0899 12.698 14.9504C13.9935 14.9504 13.8 15.1629 13.8 13.0337C13.8 12.8019 13.6485 12.6504 13.4167 12.6504H11.5C11.2682 12.6504 11.1167 12.8019 11.1167 13.0337Z" fill="#373737"/>
<path fill-rule="evenodd" clip-rule="evenodd" d="M3.06665 12.9856C3.06665 13.2864 3.61403 15.3184 3.72783 15.7744C3.81129 16.1089 3.81548 16.4835 4.21665 16.4835C4.52402 16.4835 4.58455 16.2668 4.6758 16.0322C4.76993 15.7902 4.8787 15.5768 4.93541 15.3335H5.03124C5.08406 15.5602 5.1904 15.7829 5.2769 15.9982C5.36451 16.2162 5.43986 16.4835 5.74998 16.4835C6.1271 16.4835 6.15368 16.119 6.22924 15.8127C6.30423 15.5089 6.38667 15.1821 6.45907 14.8926C6.56525 14.4679 6.89998 13.2951 6.89998 12.9376C6.89998 12.684 6.27282 12.3845 6.11131 13.0115L5.60624 14.7585C5.59213 14.589 5.47149 14.3481 5.40894 14.1891C5.33338 13.9971 5.26296 13.8001 4.98332 13.8001C4.48068 13.8001 4.5474 14.5513 4.26458 14.7585C4.25847 14.4847 4.07065 13.8868 3.99628 13.5893C3.90089 13.2076 3.8726 12.6501 3.44998 12.6501C3.24493 12.6501 3.06665 12.7979 3.06665 12.9856Z" fill="#373737"/>
<path fill-rule="evenodd" clip-rule="evenodd" d="M15.3333 8.81647H16.4833V9.58314H15.3333V8.81647ZM14.5667 8.43314V11.4998C14.5667 11.7316 14.7182 11.8831 14.95 11.8831H16.8667C17.381 11.8831 17.381 11.1165 16.8667 11.1165H15.3333V10.3498H16.8667C17.0984 10.3498 17.25 10.1983 17.25 9.96647V8.43314C17.25 8.20135 17.0984 8.0498 16.8667 8.0498H14.95C14.7182 8.0498 14.5667 8.20135 14.5667 8.43314Z" fill="#373737"/>
<path fill-rule="evenodd" clip-rule="evenodd" d="M7.28327 8.81647H8.43327V11.1165H7.28327V8.81647ZM6.5166 8.43314V11.4998C6.5166 11.7316 6.66815 11.8831 6.89994 11.8831H8.8166C9.04839 11.8831 9.19994 11.7316 9.19994 11.4998V8.43314C9.19994 8.20135 9.04839 8.0498 8.8166 8.0498H6.89994C6.66815 8.0498 6.5166 8.20135 6.5166 8.43314Z" fill="#373737"/>
<path fill-rule="evenodd" clip-rule="evenodd" d="M8.43342 13.4171H9.58341V15.7171H8.43342V13.4171ZM7.66675 13.0337V16.1004C7.66675 16.3322 7.8183 16.4837 8.05008 16.4837H9.96675C10.1985 16.4837 10.3501 16.3322 10.3501 16.1004V13.0337C10.3501 12.8019 10.1985 12.6504 9.96675 12.6504H8.05008C7.8183 12.6504 7.66675 12.8019 7.66675 13.0337Z" fill="#373737"/>
<path fill-rule="evenodd" clip-rule="evenodd" d="M3.06665 8.43312V11.4998C3.06665 12.0141 3.83332 12.0141 3.83332 11.4998V10.3498H4.98332C4.98332 11.1667 4.83008 11.8831 5.36665 11.8831C5.59844 11.8831 5.74998 11.7316 5.74998 11.4998V8.43312C5.74998 7.91878 4.98332 7.91878 4.98332 8.43312V9.58312H3.83332C3.83332 8.76621 3.98655 8.04979 3.44998 8.04979C3.2182 8.04979 3.06665 8.20133 3.06665 8.43312Z" fill="#373737"/>
<path fill-rule="evenodd" clip-rule="evenodd" d="M14.5667 13.0337V16.1004C14.5667 16.3322 14.7182 16.4837 14.95 16.4837C15.4559 16.4837 15.3333 15.8878 15.3333 15.3817C15.6545 15.5967 16.5532 16.4837 16.8667 16.4837C17.1369 16.4837 17.5606 16.1274 16.9356 15.6481C16.7691 15.5204 16.6364 15.4053 16.4833 15.2858L15.6208 14.5671L16.4833 13.8483C16.8031 13.5985 17.25 13.3242 17.25 13.0337C17.25 12.7316 16.949 12.4439 16.4496 12.8563L15.3333 13.7525C15.3333 13.2463 15.4559 12.6504 14.95 12.6504C14.7182 12.6504 14.5667 12.8019 14.5667 13.0337Z" fill="#373737"/>
<path fill-rule="evenodd" clip-rule="evenodd" d="M1.91675 6.03753C1.91675 7.19704 3.45008 7.19704 3.45008 6.03753C3.45008 5.69003 3.1177 5.3667 2.58758 5.3667C2.28836 5.3667 1.91675 5.73831 1.91675 6.03753Z" fill="#373737"/>
<path fill-rule="evenodd" clip-rule="evenodd" d="M5.75 6.03753C5.75 7.19704 7.28333 7.19704 7.28333 6.03753C7.28333 5.69003 6.95095 5.3667 6.42083 5.3667C6.12161 5.3667 5.75 5.73831 5.75 6.03753Z" fill="#373737"/>
<path fill-rule="evenodd" clip-rule="evenodd" d="M9.58325 6.03753C9.58325 7.19704 11.1166 7.19704 11.1166 6.03753C11.1166 5.69003 10.7842 5.3667 10.2541 5.3667C9.95487 5.3667 9.58325 5.73831 9.58325 6.03753Z" fill="#373737"/>
<path fill-rule="evenodd" clip-rule="evenodd" d="M13.4167 6.03753C13.4167 7.19704 14.9501 7.19704 14.9501 6.03753C14.9501 5.69003 14.6177 5.3667 14.0876 5.3667C13.7884 5.3667 13.4167 5.73831 13.4167 6.03753Z" fill="#373737"/>
<path fill-rule="evenodd" clip-rule="evenodd" d="M17.25 6.03753C17.25 7.19704 18.7833 7.19704 18.7833 6.03753C18.7833 5.69003 18.451 5.3667 17.9208 5.3667C17.6216 5.3667 17.25 5.73831 17.25 6.03753Z" fill="#373737"/>
</svg>
