<svg width="25" height="27" viewBox="0 0 25 27" fill="none" xmlns="http://www.w3.org/2000/svg">
<path d="M21.2547 6.87013C17.945 6.51337 14.6154 6.32959 11.2957 6.32959C9.32774 6.32959 7.35979 6.4377 5.39184 6.65391L3.36426 6.87013" stroke="#DD1919" stroke-width="1.5" stroke-linecap="round" stroke-linejoin="round"/>
<path d="M8.83105 5.77819L9.04972 4.36198C9.20874 3.33495 9.32801 2.56738 11.0077 2.56738H13.6118C15.2915 2.56738 15.4207 3.37819 15.5698 4.37279L15.7884 5.77819" stroke="#DD1919" stroke-width="1.5" stroke-linecap="round" stroke-linejoin="round"/>
<path d="M19.1176 10.2861L18.4715 21.1726C18.3622 22.8699 18.2728 24.1888 15.4997 24.1888H9.11882C6.3458 24.1888 6.25635 22.8699 6.14702 21.1726L5.50098 10.2861" stroke="#DD1919" stroke-width="1.5" stroke-linecap="round" stroke-linejoin="round"/>
<path d="M10.6504 18.2432H13.9601" stroke="#DD1919" stroke-width="1.5" stroke-linecap="round" stroke-linejoin="round"/>
<path d="M9.8252 13.9189H14.7948" stroke="#DD1919" stroke-width="1.5" stroke-linecap="round" stroke-linejoin="round"/>
</svg>
